{
    "asset" : {
        "generator" : "Khronos glTF Blender I/O v1.5.17",
        "version" : "2.0"
    },
    "scene" : 0,
    "scenes" : [
        {
            "name" : "Scene",
            "nodes" : [
                0,
                1,
                2,
                3,
                4,
                5,
                6,
                7
            ]
        }
    ],
    "nodes" : [
        {
            "mesh" : 0,
            "name" : "trim",
            "scale" : [
                0.9800000190734863,
                1,
                0.9800000190734863
            ],
            "translation" : [
                1,
                0,
                -1
            ]
        },
        {
            "mesh" : 1,
            "name" : "tile",
            "scale" : [
                0.7900000214576721,
                1.0499999523162842,
                0.7900000214576721
            ],
            "translation" : [
                1,
                0,
                -1
            ]
        },
        {
            "mesh" : 2,
            "name" : "trim.001",
            "scale" : [
                0.9800000190734863,
                1,
                0.9800000190734863
            ],
            "translation" : [
                1,
                0,
                1
            ]
        },
        {
            "mesh" : 3,
            "name" : "trim.002",
            "scale" : [
                0.9800000190734863,
                1,
                0.9800000190734863
            ],
            "translation" : [
                -1,
                0,
                -1
            ]
        },
        {
            "mesh" : 4,
            "name" : "trim.003",
            "scale" : [
                0.9800000190734863,
                1,
                0.9800000190734863
            ],
            "translation" : [
                -1,
                0,
                1
            ]
        },
        {
            "mesh" : 5,
            "name" : "tile.001",
            "scale" : [
                0.7900000214576721,
                1.0499999523162842,
                0.7900000214576721
            ],
            "translation" : [
                1,
                0,
                1
            ]
        },
        {
            "mesh" : 6,
            "name" : "tile.002",
            "scale" : [
                0.7900000214576721,
                1.0499999523162842,
                0.7900000214576721
            ],
            "translation" : [
                -1,
                0,
                -1
            ]
        },
        {
            "mesh" : 7,
            "name" : "tile.003",
            "scale" : [
                0.7900000214576721,
                1.0499999523162842,
                0.7900000214576721
            ],
            "translation" : [
                -1,
                0,
                1
            ]
        }
    ],
    "materials" : [
        {
            "doubleSided" : true,
            "name" : "trim_inactive",
            "pbrMetallicRoughness" : {
                "baseColorFactor" : [
                    1,
                    0,
                    0.16150157153606415,
                    1
                ],
                "metallicFactor" : 0
            }
        },
        {
            "doubleSided" : true,
            "name" : "tile_black",
            "pbrMetallicRoughness" : {
                "baseColorFactor" : [
                    0,
                    0,
                    0,
                    1
                ],
                "metallicFactor" : 0
            }
        }
    ],
    "meshes" : [
        {
            "name" : "Cube.001",
            "primitives" : [
                {
                    "attributes" : {
                        "POSITION" : 0,
                        "NORMAL" : 1,
                        "TEXCOORD_0" : 2
                    },
                    "indices" : 3,
                    "material" : 0
                }
            ]
        },
        {
            "name" : "Cube.003",
            "primitives" : [
                {
                    "attributes" : {
                        "POSITION" : 4,
                        "NORMAL" : 5,
                        "TEXCOORD_0" : 6
                    },
                    "indices" : 7,
                    "material" : 1
                }
            ]
        },
        {
            "name" : "Cube.002",
            "primitives" : [
                {
                    "attributes" : {
                        "POSITION" : 8,
                        "NORMAL" : 9,
                        "TEXCOORD_0" : 10
                    },
                    "indices" : 3,
                    "material" : 0
                }
            ]
        },
        {
            "name" : "Cube.004",
            "primitives" : [
                {
                    "attributes" : {
                        "POSITION" : 11,
                        "NORMAL" : 12,
                        "TEXCOORD_0" : 13
                    },
                    "indices" : 3,
                    "material" : 0
                }
            ]
        },
        {
            "name" : "Cube.005",
            "primitives" : [
                {
                    "attributes" : {
                        "POSITION" : 14,
                        "NORMAL" : 15,
                        "TEXCOORD_0" : 16
                    },
                    "indices" : 3,
                    "material" : 0
                }
            ]
        },
        {
            "name" : "Cube.006",
            "primitives" : [
                {
                    "attributes" : {
                        "POSITION" : 17,
                        "NORMAL" : 18,
                        "TEXCOORD_0" : 19
                    },
                    "indices" : 7,
                    "material" : 1
                }
            ]
        },
        {
            "name" : "Cube.007",
            "primitives" : [
                {
                    "attributes" : {
                        "POSITION" : 20,
                        "NORMAL" : 21,
                        "TEXCOORD_0" : 22
                    },
                    "indices" : 7,
                    "material" : 1
                }
            ]
        },
        {
            "name" : "Cube.008",
            "primitives" : [
                {
                    "attributes" : {
                        "POSITION" : 23,
                        "NORMAL" : 24,
                        "TEXCOORD_0" : 25
                    },
                    "indices" : 7,
                    "material" : 1
                }
            ]
        }
    ],
    "accessors" : [
        {
            "bufferView" : 0,
            "componentType" : 5126,
            "count" : 64,
            "max" : [
                0.9999999403953552,
                0.41499999165534973,
                1
            ],
            "min" : [
                -0.9999999403953552,
                -0.003076523542404175,
                -0.9999999403953552
            ],
            "type" : "VEC3"
        },
        {
            "bufferView" : 1,
            "componentType" : 5126,
            "count" : 64,
            "type" : "VEC3"
        },
        {
            "bufferView" : 2,
            "componentType" : 5126,
            "count" : 64,
            "type" : "VEC2"
        },
        {
            "bufferView" : 3,
            "componentType" : 5123,
            "count" : 114,
            "type" : "SCALAR"
        },
        {
            "bufferView" : 4,
            "componentType" : 5126,
            "count" : 24,
            "max" : [
                1,
                0.45899999141693115,
                1
            ],
            "min" : [
                -1,
                -0.0029145479202270508,
                -1
            ],
            "type" : "VEC3"
        },
        {
            "bufferView" : 5,
            "componentType" : 5126,
            "count" : 24,
            "type" : "VEC3"
        },
        {
            "bufferView" : 6,
            "componentType" : 5126,
            "count" : 24,
            "type" : "VEC2"
        },
        {
            "bufferView" : 7,
            "componentType" : 5123,
            "count" : 36,
            "type" : "SCALAR"
        },
        {
            "bufferView" : 8,
            "componentType" : 5126,
            "count" : 64,
            "max" : [
                0.9999999403953552,
                0.41499999165534973,
                1
            ],
            "min" : [
                -0.9999999403953552,
                -0.003076523542404175,
                -0.9999999403953552
            ],
            "type" : "VEC3"
        },
        {
            "bufferView" : 9,
            "componentType" : 5126,
            "count" : 64,
            "type" : "VEC3"
        },
        {
            "bufferView" : 10,
            "componentType" : 5126,
            "count" : 64,
            "type" : "VEC2"
        },
        {
            "bufferView" : 11,
            "componentType" : 5126,
            "count" : 64,
            "max" : [
                0.9999999403953552,
                0.41499999165534973,
                1
            ],
            "min" : [
                -0.9999999403953552,
                -0.003076523542404175,
                -0.9999999403953552
            ],
            "type" : "VEC3"
        },
        {
            "bufferView" : 12,
            "componentType" : 5126,
            "count" : 64,
            "type" : "VEC3"
        },
        {
            "bufferView" : 13,
            "componentType" : 5126,
            "count" : 64,
            "type" : "VEC2"
        },
        {
            "bufferView" : 14,
            "componentType" : 5126,
            "count" : 64,
            "max" : [
                0.9999999403953552,
                0.41499999165534973,
                1
            ],
            "min" : [
                -0.9999999403953552,
                -0.003076523542404175,
                -0.9999999403953552
            ],
            "type" : "VEC3"
        },
        {
            "bufferView" : 15,
            "componentType" : 5126,
            "count" : 64,
            "type" : "VEC3"
        },
        {
            "bufferView" : 16,
            "componentType" : 5126,
            "count" : 64,
            "type" : "VEC2"
        },
        {
            "bufferView" : 17,
            "componentType" : 5126,
            "count" : 24,
            "max" : [
                1,
                0.45899999141693115,
                1
            ],
            "min" : [
                -1,
                -0.0029145479202270508,
                -1
            ],
            "type" : "VEC3"
        },
        {
            "bufferView" : 18,
            "componentType" : 5126,
            "count" : 24,
            "type" : "VEC3"
        },
        {
            "bufferView" : 19,
            "componentType" : 5126,
            "count" : 24,
            "type" : "VEC2"
        },
        {
            "bufferView" : 20,
            "componentType" : 5126,
            "count" : 24,
            "max" : [
                1,
                0.45899999141693115,
                1
            ],
            "min" : [
                -1,
                -0.0029145479202270508,
                -1
            ],
            "type" : "VEC3"
        },
        {
            "bufferView" : 21,
            "componentType" : 5126,
            "count" : 24,
            "type" : "VEC3"
        },
        {
            "bufferView" : 22,
            "componentType" : 5126,
            "count" : 24,
            "type" : "VEC2"
        },
        {
            "bufferView" : 23,
            "componentType" : 5126,
            "count" : 24,
            "max" : [
                1,
                0.45899999141693115,
                1
            ],
            "min" : [
                -1,
                -0.0029145479202270508,
                -1
            ],
            "type" : "VEC3"
        },
        {
            "bufferView" : 24,
            "componentType" : 5126,
            "count" : 24,
            "type" : "VEC3"
        },
        {
            "bufferView" : 25,
            "componentType" : 5126,
            "count" : 24,
            "type" : "VEC2"
        }
    ],
    "bufferViews" : [
        {
            "buffer" : 0,
            "byteLength" : 768,
            "byteOffset" : 0
        },
        {
            "buffer" : 0,
            "byteLength" : 768,
            "byteOffset" : 768
        },
        {
            "buffer" : 0,
            "byteLength" : 512,
            "byteOffset" : 1536
        },
        {
            "buffer" : 0,
            "byteLength" : 228,
            "byteOffset" : 2048
        },
        {
            "buffer" : 0,
            "byteLength" : 288,
            "byteOffset" : 2276
        },
        {
            "buffer" : 0,
            "byteLength" : 288,
            "byteOffset" : 2564
        },
        {
            "buffer" : 0,
            "byteLength" : 192,
            "byteOffset" : 2852
        },
        {
            "buffer" : 0,
            "byteLength" : 72,
            "byteOffset" : 3044
        },
        {
            "buffer" : 0,
            "byteLength" : 768,
            "byteOffset" : 3116
        },
        {
            "buffer" : 0,
            "byteLength" : 768,
            "byteOffset" : 3884
        },
        {
            "buffer" : 0,
            "byteLength" : 512,
            "byteOffset" : 4652
        },
        {
            "buffer" : 0,
            "byteLength" : 768,
            "byteOffset" : 5164
        },
        {
            "buffer" : 0,
            "byteLength" : 768,
            "byteOffset" : 5932
        },
        {
            "buffer" : 0,
            "byteLength" : 512,
            "byteOffset" : 6700
        },
        {
            "buffer" : 0,
            "byteLength" : 768,
            "byteOffset" : 7212
        },
        {
            "buffer" : 0,
            "byteLength" : 768,
            "byteOffset" : 7980
        },
        {
            "buffer" : 0,
            "byteLength" : 512,
            "byteOffset" : 8748
        },
        {
            "buffer" : 0,
            "byteLength" : 288,
            "byteOffset" : 9260
        },
        {
            "buffer" : 0,
            "byteLength" : 288,
            "byteOffset" : 9548
        },
        {
            "buffer" : 0,
            "byteLength" : 192,
            "byteOffset" : 9836
        },
        {
            "buffer" : 0,
            "byteLength" : 288,
            "byteOffset" : 10028
        },
        {
            "buffer" : 0,
            "byteLength" : 288,
            "byteOffset" : 10316
        },
        {
            "buffer" : 0,
            "byteLength" : 192,
            "byteOffset" : 10604
        },
        {
            "buffer" : 0,
            "byteLength" : 288,
            "byteOffset" : 10796
        },
        {
            "buffer" : 0,
            "byteLength" : 288,
            "byteOffset" : 11084
        },
        {
            "buffer" : 0,
            "byteLength" : 192,
            "byteOffset" : 11372
        }
    ],
    "buffers" : [
        {
            "byteLength" : 11564,
            "uri" : "data:application/octet-stream;base64,"
        }
    ]
}
