{
    "asset" : {
        "generator" : "Khronos glTF Blender I/O v1.5.17",
        "version" : "2.0"
    },
    "scene" : 0,
    "scenes" : [
        {
            "name" : "Scene",
            "nodes" : [
                0,
                1,
                2
            ]
        }
    ],
    "nodes" : [
        {
            "name" : "Sun",
            "rotation" : [
                0.43093064427375793,
                0,
                0,
                0.9023850560188293
            ],
            "translation" : [
                0.17812395095825195,
                11.178406715393066,
                12.756562232971191
            ]
        },
        {
            "mesh" : 0,
            "name" : "Cube"
        },
        {
            "name" : "Camera",
            "rotation" : [
                0.46731793880462646,
                0.33580705523490906,
                -0.1977487951517105,
                0.7935634851455688
            ],
            "translation" : [
                13.588716506958008,
                11.161124229431152,
                13.624669075012207
            ]
        }
    ],
    "materials" : [
        {
            "doubleSided" : true,
            "name" : "body",
            "normalTexture" : {
                "index" : 0
            },
            "pbrMetallicRoughness" : {
                "baseColorTexture" : {
                    "index" : 1
                },
                "metallicFactor" : 0,
                "metallicRoughnessTexture" : {
                    "index" : 2
                }
            }
        },
        {
            "doubleSided" : true,
            "name" : "extras",
            "pbrMetallicRoughness" : {
                "metallicFactor" : 0
            }
        }
    ],
    "meshes" : [
        {
            "name" : "Cube",
            "primitives" : [
                {
                    "attributes" : {
                        "POSITION" : 0,
                        "NORMAL" : 1,
                        "TEXCOORD_0" : 2
                    },
                    "indices" : 3,
                    "material" : 0
                },
                {
                    "attributes" : {
                        "POSITION" : 4,
                        "NORMAL" : 5,
                        "TEXCOORD_0" : 6
                    },
                    "indices" : 7,
                    "material" : 1
                }
            ]
        }
    ],
    "textures" : [
        {
            "sampler" : 0,
            "source" : 0
        },
        {
            "sampler" : 0,
            "source" : 1
        },
        {
            "sampler" : 0,
            "source" : 2
        }
    ],
    "images" : [
        {
            "bufferView" : 4,
            "mimeType" : "image/png",
            "name" : "castle wall bump"
        },
        {
            "bufferView" : 5,
            "mimeType" : "image/jpeg",
            "name" : "TexturesCom_BrickJapanese0115_6_S"
        },
        {
            "bufferView" : 6,
            "mimeType" : "image/png",
            "name" : "castle wall rough"
        }
    ],
    "accessors" : [
        {
            "bufferView" : 0,
            "componentType" : 5126,
            "count" : 640,
            "max" : [
                2.000000476837158,
                5.281740665435791,
                1.5799561738967896
            ],
            "min" : [
                -1.999998927116394,
                -4.689421653747559,
                -2.721723794937134
            ],
            "type" : "VEC3"
        },
        {
            "bufferView" : 1,
            "componentType" : 5126,
            "count" : 640,
            "type" : "VEC3"
        },
        {
            "bufferView" : 2,
            "componentType" : 5126,
            "count" : 640,
            "type" : "VEC2"
        },
        {
            "bufferView" : 3,
            "componentType" : 5123,
            "count" : 960,
            "type" : "SCALAR"
        },
        {
            "bufferView" : 7,
            "componentType" : 5126,
            "count" : 712,
            "max" : [
                2.000000476837158,
                5.281740665435791,
                1.4291166067123413
            ],
            "min" : [
                -1.9999995231628418,
                -1.8776289224624634,
                -2.5708837509155273
            ],
            "type" : "VEC3"
        },
        {
            "bufferView" : 8,
            "componentType" : 5126,
            "count" : 712,
            "type" : "VEC3"
        },
        {
            "bufferView" : 9,
            "componentType" : 5126,
            "count" : 712,
            "type" : "VEC2"
        },
        {
            "bufferView" : 10,
            "componentType" : 5123,
            "count" : 1068,
            "type" : "SCALAR"
        }
    ],
    "bufferViews" : [
        {
            "buffer" : 0,
            "byteLength" : 7680,
            "byteOffset" : 0
        },
        {
            "buffer" : 0,
            "byteLength" : 7680,
            "byteOffset" : 7680
        },
        {
            "buffer" : 0,
            "byteLength" : 5120,
            "byteOffset" : 15360
        },
        {
            "buffer" : 0,
            "byteLength" : 1920,
            "byteOffset" : 20480
        },
        {
            "buffer" : 0,
            "byteLength" : 945736,
            "byteOffset" : 22400
        },
        {
            "buffer" : 0,
            "byteLength" : 1031977,
            "byteOffset" : 968136
        },
        {
            "buffer" : 0,
            "byteLength" : 649115,
            "byteOffset" : 2000116
        },
        {
            "buffer" : 0,
            "byteLength" : 8544,
            "byteOffset" : 2649232
        },
        {
            "buffer" : 0,
            "byteLength" : 8544,
            "byteOffset" : 2657776
        },
        {
            "buffer" : 0,
            "byteLength" : 5696,
            "byteOffset" : 2666320
        },
        {
            "buffer" : 0,
            "byteLength" : 2136,
            "byteOffset" : 2672016
        }
    ],
    "samplers" : [
        {
            "magFilter" : 9729,
            "minFilter" : 9987
        }
    ],
    "buffers" : [
        {
            "byteLength" : 2674152,
            "uri" : "data:application/octet-stream;base64,"
        }
    ]
}
