{
    "asset" : {
        "generator" : "Khronos glTF Blender I/O v1.5.17",
        "version" : "2.0"
    },
    "extensionsUsed" : [
        "KHR_materials_clearcoat"
    ],
    "scene" : 0,
    "scenes" : [
        {
            "name" : "Scene",
            "nodes" : [
                0,
                1,
                2,
                3,
                4,
                5,
                6,
                7
            ]
        }
    ],
    "nodes" : [
        {
            "mesh" : 0,
            "name" : "Cylinder",
            "translation" : [
                0,
                0.20000000298023224,
                0
            ]
        },
        {
            "mesh" : 1,
            "name" : "Cylinder.001",
            "translation" : [
                4,
                1,
                6.900000095367432
            ]
        },
        {
            "mesh" : 2,
            "name" : "Cylinder.002",
            "translation" : [
                8,
                0,
                0
            ]
        },
        {
            "mesh" : 3,
            "name" : "Cylinder.003",
            "translation" : [
                16,
                0.5,
                0
            ]
        },
        {
            "mesh" : 4,
            "name" : "Cylinder.004",
            "translation" : [
                -8,
                -0.5,
                0
            ]
        },
        {
            "mesh" : 5,
            "name" : "Cylinder.005",
            "translation" : [
                -16,
                -1.5,
                0
            ]
        },
        {
            "mesh" : 6,
            "name" : "Cylinder.006",
            "translation" : [
                0,
                2,
                13.800000190734863
            ]
        },
        {
            "mesh" : 7,
            "name" : "Cylinder.007",
            "translation" : [
                -4,
                -0.699999988079071,
                -6.900000095367432
            ]
        }
    ],
    "materials" : [
        {
            "doubleSided" : true,
            "extensions" : {
                "KHR_materials_clearcoat" : {
                    "clearcoatFactor" : 0.30000001192092896,
                    "clearcoatRoughnessFactor" : 0.10000000149011612
                }
            },
            "name" : "tile.006",
            "pbrMetallicRoughness" : {
                "baseColorFactor" : [
                    0.010700984857976437,
                    0.8000000715255737,
                    0.012544063851237297,
                    1
                ],
                "metallicFactor" : 0,
                "roughnessFactor" : 0.5
            }
        },
        {
            "doubleSided" : true,
            "extensions" : {
                "KHR_materials_clearcoat" : {
                    "clearcoatFactor" : 0.30000001192092896,
                    "clearcoatRoughnessFactor" : 0.10000000149011612
                }
            },
            "name" : "tile.003",
            "pbrMetallicRoughness" : {
                "baseColorFactor" : [
                    0.8000000715255737,
                    0.19654303789138794,
                    0.7364615201950073,
                    1
                ],
                "metallicFactor" : 0,
                "roughnessFactor" : 0.5
            }
        },
        {
            "doubleSided" : true,
            "extensions" : {
                "KHR_materials_clearcoat" : {
                    "clearcoatFactor" : 0.30000001192092896,
                    "clearcoatRoughnessFactor" : 0.10000000149011612
                }
            },
            "name" : "tile",
            "pbrMetallicRoughness" : {
                "baseColorFactor" : [
                    0.2696007788181305,
                    0.8000000715255737,
                    0.1114908829331398,
                    1
                ],
                "metallicFactor" : 0,
                "roughnessFactor" : 0.5
            }
        },
        {
            "doubleSided" : true,
            "extensions" : {
                "KHR_materials_clearcoat" : {
                    "clearcoatFactor" : 0.30000001192092896,
                    "clearcoatRoughnessFactor" : 0.10000000149011612
                }
            },
            "name" : "tile.001",
            "pbrMetallicRoughness" : {
                "baseColorFactor" : [
                    0.8000000715255737,
                    0.36123794317245483,
                    0.03800131380558014,
                    1
                ],
                "metallicFactor" : 0,
                "roughnessFactor" : 0.5
            }
        },
        {
            "doubleSided" : true,
            "extensions" : {
                "KHR_materials_clearcoat" : {
                    "clearcoatFactor" : 0.30000001192092896,
                    "clearcoatRoughnessFactor" : 0.10000000149011612
                }
            },
            "name" : "tile.004",
            "pbrMetallicRoughness" : {
                "baseColorFactor" : [
                    0.041772156953811646,
                    0.2403780221939087,
                    0.8000000715255737,
                    1
                ],
                "metallicFactor" : 0,
                "roughnessFactor" : 0.5
            }
        },
        {
            "doubleSided" : true,
            "extensions" : {
                "KHR_materials_clearcoat" : {
                    "clearcoatFactor" : 0.30000001192092896,
                    "clearcoatRoughnessFactor" : 0.10000000149011612
                }
            },
            "name" : "tile.002",
            "pbrMetallicRoughness" : {
                "baseColorFactor" : [
                    0,
                    0.021114883944392204,
                    0.021979302167892456,
                    1
                ],
                "metallicFactor" : 0,
                "roughnessFactor" : 0.5
            }
        },
        {
            "doubleSided" : true,
            "extensions" : {
                "KHR_materials_clearcoat" : {
                    "clearcoatFactor" : 0.30000001192092896,
                    "clearcoatRoughnessFactor" : 0.10000000149011612
                }
            },
            "name" : "tile.005",
            "pbrMetallicRoughness" : {
                "baseColorFactor" : [
                    0.004222183953970671,
                    0.021990902721881866,
                    0.8000000715255737,
                    1
                ],
                "metallicFactor" : 0,
                "roughnessFactor" : 0.5
            }
        }
    ],
    "meshes" : [
        {
            "name" : "Cylinder.004",
            "primitives" : [
                {
                    "attributes" : {
                        "POSITION" : 0,
                        "NORMAL" : 1,
                        "TEXCOORD_0" : 2
                    },
                    "indices" : 3,
                    "material" : 0
                }
            ]
        },
        {
            "name" : "Cylinder.005",
            "primitives" : [
                {
                    "attributes" : {
                        "POSITION" : 4,
                        "NORMAL" : 5,
                        "TEXCOORD_0" : 6
                    },
                    "indices" : 3,
                    "material" : 1
                }
            ]
        },
        {
            "name" : "Cylinder.006",
            "primitives" : [
                {
                    "attributes" : {
                        "POSITION" : 7,
                        "NORMAL" : 8,
                        "TEXCOORD_0" : 9
                    },
                    "indices" : 3,
                    "material" : 2
                }
            ]
        },
        {
            "name" : "Cylinder.007",
            "primitives" : [
                {
                    "attributes" : {
                        "POSITION" : 10,
                        "NORMAL" : 11,
                        "TEXCOORD_0" : 12
                    },
                    "indices" : 3,
                    "material" : 3
                }
            ]
        },
        {
            "name" : "Cylinder.008",
            "primitives" : [
                {
                    "attributes" : {
                        "POSITION" : 13,
                        "NORMAL" : 14,
                        "TEXCOORD_0" : 15
                    },
                    "indices" : 3,
                    "material" : 2
                }
            ]
        },
        {
            "name" : "Cylinder.009",
            "primitives" : [
                {
                    "attributes" : {
                        "POSITION" : 16,
                        "NORMAL" : 17,
                        "TEXCOORD_0" : 18
                    },
                    "indices" : 3,
                    "material" : 4
                }
            ]
        },
        {
            "name" : "Cylinder.010",
            "primitives" : [
                {
                    "attributes" : {
                        "POSITION" : 19,
                        "NORMAL" : 20,
                        "TEXCOORD_0" : 21
                    },
                    "indices" : 3,
                    "material" : 5
                }
            ]
        },
        {
            "name" : "Cylinder.011",
            "primitives" : [
                {
                    "attributes" : {
                        "POSITION" : 22,
                        "NORMAL" : 23,
                        "TEXCOORD_0" : 24
                    },
                    "indices" : 3,
                    "material" : 6
                }
            ]
        }
    ],
    "accessors" : [
        {
            "bufferView" : 0,
            "componentType" : 5126,
            "count" : 36,
            "max" : [
                3.8477513790130615,
                3.8423728942871094,
                4.443000316619873
            ],
            "min" : [
                -3.8477513790130615,
                -3.8423728942871094,
                -4.443000316619873
            ],
            "type" : "VEC3"
        },
        {
            "bufferView" : 1,
            "componentType" : 5126,
            "count" : 36,
            "type" : "VEC3"
        },
        {
            "bufferView" : 2,
            "componentType" : 5126,
            "count" : 36,
            "type" : "VEC2"
        },
        {
            "bufferView" : 3,
            "componentType" : 5123,
            "count" : 60,
            "type" : "SCALAR"
        },
        {
            "bufferView" : 4,
            "componentType" : 5126,
            "count" : 36,
            "max" : [
                3.8477513790130615,
                3.8423728942871094,
                4.443000316619873
            ],
            "min" : [
                -3.8477513790130615,
                -3.8423728942871094,
                -4.443000316619873
            ],
            "type" : "VEC3"
        },
        {
            "bufferView" : 5,
            "componentType" : 5126,
            "count" : 36,
            "type" : "VEC3"
        },
        {
            "bufferView" : 6,
            "componentType" : 5126,
            "count" : 36,
            "type" : "VEC2"
        },
        {
            "bufferView" : 7,
            "componentType" : 5126,
            "count" : 36,
            "max" : [
                3.8477513790130615,
                3.8423728942871094,
                4.443000316619873
            ],
            "min" : [
                -3.8477513790130615,
                -3.8423728942871094,
                -4.443000316619873
            ],
            "type" : "VEC3"
        },
        {
            "bufferView" : 8,
            "componentType" : 5126,
            "count" : 36,
            "type" : "VEC3"
        },
        {
            "bufferView" : 9,
            "componentType" : 5126,
            "count" : 36,
            "type" : "VEC2"
        },
        {
            "bufferView" : 10,
            "componentType" : 5126,
            "count" : 36,
            "max" : [
                3.8477513790130615,
                3.8423728942871094,
                4.443000316619873
            ],
            "min" : [
                -3.8477513790130615,
                -3.8423728942871094,
                -4.443000316619873
            ],
            "type" : "VEC3"
        },
        {
            "bufferView" : 11,
            "componentType" : 5126,
            "count" : 36,
            "type" : "VEC3"
        },
        {
            "bufferView" : 12,
            "componentType" : 5126,
            "count" : 36,
            "type" : "VEC2"
        },
        {
            "bufferView" : 13,
            "componentType" : 5126,
            "count" : 36,
            "max" : [
                3.8477513790130615,
                3.8423728942871094,
                4.443000316619873
            ],
            "min" : [
                -3.8477513790130615,
                -3.8423728942871094,
                -4.443000316619873
            ],
            "type" : "VEC3"
        },
        {
            "bufferView" : 14,
            "componentType" : 5126,
            "count" : 36,
            "type" : "VEC3"
        },
        {
            "bufferView" : 15,
            "componentType" : 5126,
            "count" : 36,
            "type" : "VEC2"
        },
        {
            "bufferView" : 16,
            "componentType" : 5126,
            "count" : 36,
            "max" : [
                3.8477513790130615,
                3.8423728942871094,
                4.443000316619873
            ],
            "min" : [
                -3.8477513790130615,
                -3.8423728942871094,
                -4.443000316619873
            ],
            "type" : "VEC3"
        },
        {
            "bufferView" : 17,
            "componentType" : 5126,
            "count" : 36,
            "type" : "VEC3"
        },
        {
            "bufferView" : 18,
            "componentType" : 5126,
            "count" : 36,
            "type" : "VEC2"
        },
        {
            "bufferView" : 19,
            "componentType" : 5126,
            "count" : 36,
            "max" : [
                3.8477513790130615,
                3.8423728942871094,
                4.443000316619873
            ],
            "min" : [
                -3.8477513790130615,
                -3.8423728942871094,
                -4.443000316619873
            ],
            "type" : "VEC3"
        },
        {
            "bufferView" : 20,
            "componentType" : 5126,
            "count" : 36,
            "type" : "VEC3"
        },
        {
            "bufferView" : 21,
            "componentType" : 5126,
            "count" : 36,
            "type" : "VEC2"
        },
        {
            "bufferView" : 22,
            "componentType" : 5126,
            "count" : 36,
            "max" : [
                3.8477513790130615,
                3.8423728942871094,
                4.443000316619873
            ],
            "min" : [
                -3.8477513790130615,
                -3.8423728942871094,
                -4.443000316619873
            ],
            "type" : "VEC3"
        },
        {
            "bufferView" : 23,
            "componentType" : 5126,
            "count" : 36,
            "type" : "VEC3"
        },
        {
            "bufferView" : 24,
            "componentType" : 5126,
            "count" : 36,
            "type" : "VEC2"
        }
    ],
    "bufferViews" : [
        {
            "buffer" : 0,
            "byteLength" : 432,
            "byteOffset" : 0
        },
        {
            "buffer" : 0,
            "byteLength" : 432,
            "byteOffset" : 432
        },
        {
            "buffer" : 0,
            "byteLength" : 288,
            "byteOffset" : 864
        },
        {
            "buffer" : 0,
            "byteLength" : 120,
            "byteOffset" : 1152
        },
        {
            "buffer" : 0,
            "byteLength" : 432,
            "byteOffset" : 1272
        },
        {
            "buffer" : 0,
            "byteLength" : 432,
            "byteOffset" : 1704
        },
        {
            "buffer" : 0,
            "byteLength" : 288,
            "byteOffset" : 2136
        },
        {
            "buffer" : 0,
            "byteLength" : 432,
            "byteOffset" : 2424
        },
        {
            "buffer" : 0,
            "byteLength" : 432,
            "byteOffset" : 2856
        },
        {
            "buffer" : 0,
            "byteLength" : 288,
            "byteOffset" : 3288
        },
        {
            "buffer" : 0,
            "byteLength" : 432,
            "byteOffset" : 3576
        },
        {
            "buffer" : 0,
            "byteLength" : 432,
            "byteOffset" : 4008
        },
        {
            "buffer" : 0,
            "byteLength" : 288,
            "byteOffset" : 4440
        },
        {
            "buffer" : 0,
            "byteLength" : 432,
            "byteOffset" : 4728
        },
        {
            "buffer" : 0,
            "byteLength" : 432,
            "byteOffset" : 5160
        },
        {
            "buffer" : 0,
            "byteLength" : 288,
            "byteOffset" : 5592
        },
        {
            "buffer" : 0,
            "byteLength" : 432,
            "byteOffset" : 5880
        },
        {
            "buffer" : 0,
            "byteLength" : 432,
            "byteOffset" : 6312
        },
        {
            "buffer" : 0,
            "byteLength" : 288,
            "byteOffset" : 6744
        },
        {
            "buffer" : 0,
            "byteLength" : 432,
            "byteOffset" : 7032
        },
        {
            "buffer" : 0,
            "byteLength" : 432,
            "byteOffset" : 7464
        },
        {
            "buffer" : 0,
            "byteLength" : 288,
            "byteOffset" : 7896
        },
        {
            "buffer" : 0,
            "byteLength" : 432,
            "byteOffset" : 8184
        },
        {
            "buffer" : 0,
            "byteLength" : 432,
            "byteOffset" : 8616
        },
        {
            "buffer" : 0,
            "byteLength" : 288,
            "byteOffset" : 9048
        }
    ],
    "buffers" : [
        {
            "byteLength" : 9336,
            "uri" : "data:application/octet-stream;base64,"
        }
    ]
}
